<svg xmlns="http://www.w3.org/2000/svg" width="26" height="25" viewBox="0 0 26 25"><g><g><path fill="#dedede" d="M14.142.529l3.2 6.687c.136.284.399.482.703.527L25.2 8.816c.766.114 1.072 1.085.518 1.643l-5.178 5.205a.982.982 0 0 0-.268.853l1.222 7.35c.13.788-.67 1.388-1.355 1.016l-6.4-3.47a.908.908 0 0 0-.869 0l-6.4 3.47c-.685.372-1.486-.228-1.355-1.015l1.223-7.35a.982.982 0 0 0-.27-.853L.893 10.459c-.555-.558-.249-1.529.517-1.643l7.155-1.073a.937.937 0 0 0 .703-.527l3.2-6.687a.921.921 0 0 1 1.675 0z"/></g></g></svg>