<svg xmlns="http://www.w3.org/2000/svg" width="26" height="24" viewBox="0 -1 26 27">
    <path stroke-width="1.5" stroke="#999" fill="#e9aa00"
          d="M13.491.529l3.2 6.687a.936.936 0 0 0 .703.527l7.155 1.073c.766.114 1.072 1.085.518 1.643l-5.178 5.205a.982.982 0 0 0-.268.853l1.222 7.35c.13.788-.67 1.388-1.355 1.016l-6.4-3.47a.908.908 0 0 0-.87 0l-6.399 3.47c-.685.372-1.486-.228-1.355-1.015l1.222-7.35a.982.982 0 0 0-.268-.853L.24 10.459c-.554-.558-.248-1.529.518-1.643l7.155-1.073a.937.937 0 0 0 .703-.527l3.2-6.687a.921.921 0 0 1 1.675 0z"/>
</svg>